HIERARCHY
ROOT Hips
{
	OFFSET 0.00000 0.00000 0.00000
	CHANNELS 6 Xposition Yposition Zposition Zrotation Yrotation Xrotation 
	JOINT LHipJoint
	{
		OFFSET 0 0 0
		CHANNELS 3 Zrotation Yrotation Xrotation
		JOINT LeftUpLeg
		{
			OFFSET 1.28858 -1.83292 1.03970
			CHANNELS 3 Zrotation Yrotation Xrotation
			JOINT LeftLeg
			{
				OFFSET 2.47846 -6.80952 0.00000
				CHANNELS 3 Zrotation Yrotation Xrotation
				JOINT LeftFoot
				{
					OFFSET 2.75274 -7.56311 0.00000
					CHANNELS 3 Zrotation Yrotation Xrotation
					JOINT LeftToeBase
					{
						OFFSET 0.12848 -0.35301 1.68223
						CHANNELS 3 Zrotation Yrotation Xrotation
						End Site
						{
							OFFSET 0.00000 -0.00000 0.87311
						}
					}
				}
			}
		}
	}
	JOINT RHipJoint
	{
		OFFSET 0 0 0
		CHANNELS 3 Zrotation Yrotation Xrotation
		JOINT RightUpLeg
		{
			OFFSET -1.31183 -1.83292 1.03970
			CHANNELS 3 Zrotation Yrotation Xrotation
			JOINT RightLeg
			{
				OFFSET -2.44740 -6.72417 0.00000
				CHANNELS 3 Zrotation Yrotation Xrotation
				JOINT RightFoot
				{
					OFFSET -2.67343 -7.34519 0.00000
					CHANNELS 3 Zrotation Yrotation Xrotation
					JOINT RightToeBase
					{
						OFFSET -0.16914 -0.46471 1.77626
						CHANNELS 3 Zrotation Yrotation Xrotation
						End Site
						{
							OFFSET -0.00000 -0.00000 0.92777
						}
					}
				}
			}
		}
	}
	JOINT LowerBack
	{
		OFFSET 0 0 0
		CHANNELS 3 Zrotation Yrotation Xrotation
		JOINT Spine
		{
			OFFSET 0.01249 2.14252 0.03842
			CHANNELS 3 Zrotation Yrotation Xrotation
			JOINT Spine1
			{
				OFFSET -0.02957 2.14199 -0.03751
				CHANNELS 3 Zrotation Yrotation Xrotation
				JOINT Neck
				{
					OFFSET 0 0 0
					CHANNELS 3 Zrotation Yrotation Xrotation
					JOINT Neck1
					{
						OFFSET -0.01678 1.65709 -0.05476
						CHANNELS 3 Zrotation Yrotation Xrotation
						JOINT Head
						{
							OFFSET 0.07912 1.58331 -0.11843
							CHANNELS 3 Zrotation Yrotation Xrotation
							End Site
							{
								OFFSET 0.03298 1.73940 -0.04271
							}
						}
					}
				}
				JOINT LeftShoulder
				{
					OFFSET 0 0 0
					CHANNELS 3 Zrotation Yrotation Xrotation
					JOINT LeftArm
					{
						OFFSET 3.39556 1.16496 0.08673
						CHANNELS 3 Zrotation Yrotation Xrotation
						JOINT LeftForeArm
						{
							OFFSET 5.23910 -0.00000 -0.00000
							CHANNELS 3 Zrotation Yrotation Xrotation
							JOINT LeftHand
							{
								OFFSET 3.31467 -0.00000 0.00000
								CHANNELS 3 Zrotation Yrotation Xrotation
								JOINT LeftFingerBase
								{
									OFFSET 0 0 0
									CHANNELS 3 Zrotation Yrotation Xrotation
									JOINT LeftHandIndex1
									{
										OFFSET 0.96590 -0.00000 0.00000
										CHANNELS 3 Zrotation Yrotation Xrotation
										End Site
										{
											OFFSET 0.77873 -0.00000 0.00000
										}
									}
								}
								JOINT LThumb
								{
									OFFSET 0 0 0
									CHANNELS 3 Zrotation Yrotation Xrotation
									End Site
									{
										OFFSET 0.79062 -0.00000 0.79062
									}
								}
							}
						}
					}
				}
				JOINT RightShoulder
				{
					OFFSET 0 0 0
					CHANNELS 3 Zrotation Yrotation Xrotation
					JOINT RightArm
					{
						OFFSET -3.27193 1.31331 0.33940
						CHANNELS 3 Zrotation Yrotation Xrotation
						JOINT RightForeArm
						{
							OFFSET -5.30252 -0.00000 0.00000
							CHANNELS 3 Zrotation Yrotation Xrotation
							JOINT RightHand
							{
								OFFSET -3.67875 -0.00000 0.00000
								CHANNELS 3 Zrotation Yrotation Xrotation
								JOINT RightFingerBase
								{
									OFFSET 0 0 0
									CHANNELS 3 Zrotation Yrotation Xrotation
									JOINT RightHandIndex1
									{
										OFFSET -0.59481 -0.00000 0.00000
										CHANNELS 3 Zrotation Yrotation Xrotation
										End Site
										{
											OFFSET -0.47955 -0.00000 0.00000
										}
									}
								}
								JOINT RThumb
								{
									OFFSET 0 0 0
									CHANNELS 3 Zrotation Yrotation Xrotation
									End Site
									{
										OFFSET -0.48687 -0.00000 0.48687
									}
								}
							}
						}
					}
				}
			}
		}
	}
}
MOTION
Frames: 12
Frame Time: .0083333
7.7539 19.4209 -0.3994 -2.7341 -50.4420 11.4767 0.0000 0.0000 0.0000 -2.0964 -5.3561 -35.8119 5.1687 13.5713 41.5467 0.1492 8.6589 8.6075 3.8877 12.0094 35.7653 0.0000 0.0000 0.0000 18.3811 4.9901 2.4027 -0.0346 -1.2002 3.2999 0.2518 -17.0390 -21.6797 -4.8965 -13.2663 40.3736 6.0201 3.8352 6.0803 -0.7044 5.4285 1.7575 -4.4318 2.7150 -0.9497 1.7471 4.1630 -4.3848 -2.2116 5.6233 8.7236 -0.7732 2.7378 3.7353 -0.0000 0.0000 0.0000 -30.1433 32.8078 58.6470 6.5796 -11.2254 -0.6473 -0.0000 0.0000 -0.9771 -5.9716 -18.3624 1.8874 -7.1250 0.0000 -0.0000 -21.8984 12.4123 18.0857 -0.0000 0.0000 0.0000 23.3441 65.5209 31.0803 -87.2498 59.9714 -57.6185 0.0000 -0.0000 -23.4558 -13.1925 -40.4425 8.6460 7.1250 -0.0000 -0.0000 32.2842 -68.6237 -19.0213
7.7584 19.6220 -0.3409 -3.3909 -50.7054 12.4702 0.0000 0.0000 0.0000 -2.3226 -5.4995 -37.1492 5.2955 13.7091 42.0844 0.1217 7.8718 7.7976 3.5308 11.5084 34.0143 0.0000 0.0000 0.0000 18.7447 7.3517 4.6141 -0.0002 -0.0966 0.2655 -0.1332 -17.2822 -25.6447 -6.2718 -14.6866 46.0630 6.3332 4.1852 6.4446 -0.6495 5.9305 1.8585 -4.5960 2.9664 -0.9601 1.6391 4.0001 -4.6324 -2.4661 5.4426 9.1884 -0.8392 2.6278 3.9500 -0.0000 -0.0000 0.0000 -26.8948 34.9207 60.5269 6.7908 -11.5744 -0.6891 -0.0000 0.0000 -2.1547 -4.9373 -17.3039 1.4719 -7.1250 0.0000 -0.0000 -21.3763 13.3898 17.1064 -0.0000 -0.0000 0.0000 6.7984 66.4739 18.6241 -89.2766 59.9980 -59.3735 0.0000 -0.0000 -23.2943 -15.5678 -40.2604 10.2066 7.1250 -0.0000 -0.0000 29.3519 -69.2272 -17.5678
7.7628 19.7855 -0.2813 -4.2776 -50.6662 13.6918 0.0000 0.0000 0.0000 -2.3743 -5.7368 -38.6247 5.4757 13.9002 42.8393 0.0721 7.1171 6.5271 3.1353 10.9109 31.9801 0.0000 0.0000 0.0000 19.0237 8.3328 5.5156 -0.0039 0.4026 -1.1063 0.1123 -18.5560 -25.3148 -6.0429 -14.4698 45.1535 7.1331 4.3965 6.6101 -0.7423 6.2653 1.9735 -5.1549 3.1446 -0.7913 1.5834 3.8544 -4.9367 -2.4082 5.2564 9.9636 -0.8092 2.5265 4.2794 -0.0000 -0.0000 0.0000 -23.3662 36.9568 63.4134 7.0733 -12.0398 -0.7469 -0.0000 0.0000 -4.6160 -3.5999 -20.6881 1.2733 -7.1250 0.0000 -0.0000 -20.2574 10.1891 17.5169 -0.0000 -0.0000 0.0000 -9.8731 65.9155 6.2651 -90.5988 59.9986 -60.5186 0.0000 -0.0000 -23.4721 -13.9000 -41.3257 9.2811 7.1250 -0.0000 -0.0000 32.9947 -69.5557 -20.1438
7.7695 19.8988 -0.2201 -5.1494 -50.3930 14.9106 0.0000 0.0000 0.0000 -2.3452 -6.1703 -40.1192 5.6750 14.1058 43.6630 0.0303 6.4701 5.2770 3.3634 11.2614 33.1665 0.0000 0.0000 0.0000 18.9141 7.4281 4.6640 -0.0005 0.1383 -0.3799 0.9195 -20.2591 -19.9222 -4.3652 -12.6311 38.0027 8.1608 4.4624 6.7247 -0.9465 6.4208 2.0453 -5.9454 3.2371 -0.6163 1.3671 3.6659 -4.7098 -2.4043 5.0239 10.1115 -0.7860 2.4033 4.2741 -0.0000 0.0000 0.0000 -19.9379 39.0800 65.2651 7.5141 -12.7621 -0.8415 -0.0000 0.0000 -7.5094 -3.8113 -20.4652 1.3343 -7.1250 0.0000 -0.0000 -20.4019 10.4043 17.5647 -0.0000 0.0000 0.0000 -24.0273 63.9292 -3.6951 -90.8322 59.9974 -60.7207 0.0000 -0.0000 -23.0605 -20.8550 -37.9460 13.1845 7.1250 -0.0000 -0.0000 19.7323 -68.8809 -11.4602
7.7768 19.9579 -0.1534 -5.6829 -50.0949 15.5553 0.0000 0.0000 0.0000 -2.6317 -6.5974 -41.1509 5.8304 14.2619 44.2971 0.0216 5.9044 4.7222 3.2045 11.0190 32.3441 0.0000 0.0000 0.0000 18.3499 4.8459 2.8201 -0.0133 -0.7435 2.0434 1.3552 -20.4112 -11.7626 -1.5320 -7.8143 22.1516 8.6170 4.4515 7.1674 -0.8743 6.4685 2.1464 -6.1610 3.2595 -0.7040 1.6247 3.6753 -5.2419 -2.8528 5.0734 10.8514 -0.9674 2.4038 4.6780 0.0000 0.0000 0.0000 -17.1840 41.6568 69.9770 8.3440 -14.1090 -1.0344 -0.0000 0.0000 -11.4103 -2.7344 -19.1951 0.8996 -7.1250 0.0000 -0.0000 -19.8485 11.5700 16.5128 0.0000 0.0000 0.0000 -29.7867 63.7782 -12.5012 -82.6466 59.7947 -53.6362 0.0000 -0.0000 -16.5158 -2.1908 -39.8496 1.4042 7.1250 -0.0000 -0.0000 42.6248 -64.8907 -22.3482
7.7801 19.9566 -0.0855 -6.0595 -49.8129 16.0245 0.0000 0.0000 0.0000 -3.0644 -6.8718 -42.1409 5.9843 14.4131 44.9186 0.0390 5.3003 4.8345 2.0954 9.0621 25.9898 0.0000 0.0000 0.0000 17.7746 1.7395 0.5258 -0.0849 -1.8790 5.1715 1.0472 -18.8027 -0.3970 -1.6463 8.0868 -22.9780 8.4924 4.4965 7.5337 -0.4877 6.5479 2.2660 -5.7218 3.2902 -0.8298 1.2792 3.5281 -5.4388 -3.3706 4.9851 11.5835 -0.9695 2.2994 4.4780 0.0000 0.0000 0.0000 -16.1729 43.5459 69.5962 8.6028 -14.5252 -1.0984 -0.0000 0.0000 -10.5290 -1.7350 -18.3529 0.5464 -7.1250 0.0000 -0.0000 -19.2979 12.3349 15.6672 0.0000 0.0000 0.0000 -41.0890 61.1950 -16.9028 -80.3807 59.6475 -51.6793 0.0000 -0.0000 -19.5819 -7.6897 -40.4888 5.0103 7.1250 -0.0000 -0.0000 38.1508 -66.9690 -21.4421
7.7776 19.9133 -0.0185 -6.4208 -49.5596 16.1796 0.0000 0.0000 0.0000 -3.4937 -7.0598 -42.6725 6.0997 14.5242 45.3805 0.0488 4.8286 4.8622 1.5757 7.9198 22.4708 0.0000 0.0000 0.0000 17.3564 -0.5608 -1.0061 -0.2187 -3.0107 8.3085 0.4174 -14.5259 4.3511 -5.6406 14.0708 -43.5217 8.2222 4.5478 8.1356 -0.0116 6.6421 2.4452 -5.1333 3.3233 -1.0503 1.1224 3.3211 -5.2711 -3.9936 4.7926 11.5374 -1.1490 2.1655 4.4427 0.0000 0.0000 0.0000 -15.6037 45.1365 68.3580 8.3498 -14.1183 -1.0358 -0.0000 0.0000 -8.6922 -1.2453 -17.8227 0.3812 -7.1250 0.0000 -0.0000 -19.0339 12.8207 15.2196 0.0000 0.0000 0.0000 -48.7451 59.4463 -20.2129 -76.1729 59.2651 -48.0549 0.0000 -0.0000 -20.4226 -8.8958 -40.2504 5.7748 7.1250 -0.0000 -0.0000 36.5381 -67.1494 -20.5799
7.7690 19.8267 0.0527 -6.6336 -49.2908 16.1034 0.0000 0.0000 0.0000 -3.9882 -7.2306 -43.0174 6.2233 14.6413 45.8714 0.0445 4.3626 4.5308 1.6541 8.1050 23.0334 0.0000 0.0000 0.0000 16.8332 -2.7206 -2.0940 -0.3969 -4.0448 11.2027 0.1314 -10.7808 5.3085 -7.5174 15.7525 -50.8049 7.9325 4.4588 8.6161 0.4229 6.5301 2.7099 -4.5508 3.2622 -1.1409 1.3659 3.2846 -5.8021 -4.9811 4.8722 12.3981 -1.4736 2.1337 4.8285 -0.0000 0.0000 0.0000 -15.1942 47.0779 68.8458 8.2512 -13.9592 -1.0119 -0.0000 0.0000 -8.6515 -0.6640 -17.1439 0.1957 -7.1250 0.0000 -0.0000 -18.7213 13.4447 14.6778 -0.0000 0.0000 0.0000 -54.9192 59.3740 -24.6963 -70.6489 58.5367 -43.3238 0.0000 -0.0000 -19.7855 -7.7261 -40.5971 5.0453 7.1250 -0.0000 -0.0000 38.2857 -67.0619 -21.6058
7.7578 19.6956 0.1270 -6.9913 -48.8237 16.1201 0.0000 0.0000 0.0000 -4.3231 -7.3705 -43.4445 6.4183 14.8218 46.6381 0.0474 3.4765 4.2668 1.6836 8.1733 23.2417 0.0000 0.0000 0.0000 16.4536 -4.8948 -2.8762 -0.5970 -4.9463 13.7554 0.0476 -8.0409 4.5801 -8.4805 16.4615 -54.2754 7.6986 4.1883 8.9550 1.0022 6.1728 2.9489 -3.8204 3.0775 -1.2174 1.4454 3.3447 -6.0223 -5.9376 5.1042 13.2067 -1.7613 2.1683 5.1501 0.0000 -0.0000 0.0000 -15.1086 49.4879 70.2244 8.4140 -14.2217 -1.0515 -0.0000 0.0000 -9.1528 0.1495 -16.3042 -0.0420 -7.1250 0.0000 -0.0000 -18.2697 14.2145 13.9666 0.0000 -0.0000 0.0000 -60.7279 60.8352 -30.8136 -66.0021 57.7080 -39.3772 0.0000 -0.0000 -18.6960 -6.5072 -41.8348 4.3506 7.1250 -0.0000 -0.0000 41.5623 -67.6057 -24.2014
7.7476 19.5220 0.2075 -7.7697 -48.2199 16.5502 0.0000 0.0000 0.0000 -4.2954 -7.4690 -44.0686 6.6766 15.0534 47.6404 0.0487 2.3091 3.9987 1.6794 8.1637 23.2125 0.0000 0.0000 0.0000 16.3722 -7.2164 -3.6705 -0.8093 -5.7409 16.0346 0.0442 -6.0609 2.8839 -9.0788 16.8582 -56.3623 7.8698 3.9468 9.1240 1.6091 5.8722 3.1782 -3.2690 2.9273 -1.1537 1.9413 3.2407 -6.9697 -7.1980 5.1705 14.7463 -2.2175 2.0820 5.8399 0.0000 -0.0000 0.0000 -17.0917 51.2053 66.7831 7.8020 -13.2314 -0.9063 -0.0000 0.0000 -7.2507 0.4827 -15.9710 -0.1328 -7.1250 0.0000 -0.0000 -18.0821 14.5200 13.6823 0.0000 -0.0000 0.0000 -65.0869 63.1269 -37.9586 -62.6565 56.9772 -36.5601 0.0000 -0.0000 -16.9438 -3.5878 -42.3216 2.4174 7.1250 -0.0000 -0.0000 45.2397 -67.0534 -26.1362
7.7373 19.3086 0.2954 -8.7047 -47.7085 17.2295 0.0000 0.0000 0.0000 -4.1361 -7.4904 -44.8214 6.9872 15.3211 48.8258 0.0377 1.1833 3.4470 1.7270 8.2727 23.5454 0.0000 0.0000 0.0000 16.3263 -9.6517 -4.6013 -1.0276 -6.4482 18.0905 0.0528 -4.5795 0.5625 -9.5070 17.1232 -57.8277 8.4246 3.8472 9.0284 2.0142 5.7472 3.5557 -3.1159 2.8872 -0.7034 1.9914 3.0829 -7.4157 -7.2665 4.9883 15.2012 -2.2563 1.9702 6.0541 0.0000 -0.0000 0.0000 -18.9639 52.5462 64.8749 7.9324 -13.4433 -0.9364 -0.0000 0.0000 -7.5249 1.1702 -15.4774 -0.3123 -7.1250 0.0000 -0.0000 -17.6765 14.9664 13.1640 0.0000 -0.0000 0.0000 -67.5160 65.6420 -43.2694 -63.3740 57.1440 -37.1623 0.0000 -0.0000 -19.3767 -12.2889 -42.7923 8.4177 7.1250 -0.0000 -0.0000 37.4214 -70.1571 -23.5739
7.7333 19.0555 0.3856 -9.9079 -47.4186 18.2030 0.0000 0.0000 0.0000 -3.8264 -7.2690 -45.6858 7.3735 15.6385 50.2732 0.0227 0.0712 2.8199 1.5462 7.8488 22.2557 0.0000 0.0000 0.0000 16.4134 -12.0830 -5.7399 -1.2586 -7.1117 20.0468 0.0395 -3.6146 -2.1841 -9.9500 17.3816 -59.3211 9.2163 3.9105 9.0126 2.3349 5.8566 3.9189 -3.1997 2.9682 -0.2483 1.9727 2.8751 -7.8687 -7.1517 4.7187 15.6711 -2.2340 1.8262 6.2646 0.0000 -0.0000 0.0000 -21.3725 53.8956 63.2422 8.6321 -14.5723 -1.1057 -0.0000 0.0000 -8.9507 2.2796 -15.0789 -0.5933 -7.1250 0.0000 -0.0000 -16.9838 15.3068 12.4660 0.0000 -0.0000 0.0000 -69.4773 68.8187 -49.1727 -65.8191 57.6710 -39.2224 0.0000 -0.0000 -20.8073 -19.0309 -43.7282 13.4106 7.1250 -0.0000 -0.0000 31.9388 -73.2015 -21.9283
